# xmcd
#
# Track frame offsets:
#	150
#	11404
#	28067
#	42462
#	57309
#	68785
#	86426
#	95092
#	114246
#	128504
#	144943
#	159769
#	173120
#
# Disc length: 2613 seconds
#
# Revision: 0
# Processed by: cddbd v1.5.2PL0 Copyright (c) Steve Scherf et al.
# Submitted via: SynApp - FreeCDDB Version: 2.5
#
DISCID=9d0a330d
DTITLE=REINHARD MEY - Live
DYEAR=1969
DGENRE=Acoustic
TTITLE0=Reinhard Mey - Ich wollte wie Orpheus singen
TTITLE1=Reinhard Mey - Das Canape
TTITLE2=Reinhard Mey - Das Lied von der Spieluhr
TTITLE3=Reinhard Mey - Klagelied eines sentimentalen Programmierers
TTITLE4=Reinhard Mey - Fast ein Liebeslied
TTITLE5=Reinhard Mey - Ankomme Freitag, den 13.
TTITLE6=Reinhard Mey - Irgendwann, irgendwo
TTITLE7=Reinhard Mey - Der Schuttabladeplatz der Zeit
TTITLE8=Reinhard Mey - Christine
TTITLE9=Reinhard Mey - Heute noch
TTITLE10=Reinhard Mey - In meinem Garten
TTITLE11=Reinhard Mey - C'etait une bonne annee je crois (Ich denk', es war ein gutes Jahr)
TTITLE12=Reinhard Mey - Epitaph auf Balthasar
EXTD=
EXTT0=
EXTT1=
EXTT2=
EXTT3=
EXTT4=
EXTT5=
EXTT6=
EXTT7=
EXTT8=
EXTT9=
EXTT10=
EXTT11=
EXTT12=
PLAYORDER=
